<svg width="16" height="16" viewBox="0 0 16 16" fill="none" xmlns="http://www.w3.org/2000/svg">
<path id="Line 18" d="M0.897721 13.7041C0.530439 14.0714 0.530439 14.6669 0.897721 15.0342C1.265 15.4014 1.86049 15.4014 2.22777 15.0342L0.897721 13.7041ZM15.8037 1.06867C15.8037 0.549259 15.3826 0.12819 14.8632 0.128189L6.39885 0.12819C5.87943 0.128189 5.45836 0.549259 5.45836 1.06867C5.45836 1.58809 5.87943 2.00916 6.39885 2.00916L13.9227 2.00916L13.9227 9.53304C13.9227 10.0525 14.3438 10.4735 14.8632 10.4735C15.3826 10.4735 15.8037 10.0525 15.8037 9.53304L15.8037 1.06867ZM2.22777 15.0342L15.5282 1.7337L14.1982 0.403651L0.897721 13.7041L2.22777 15.0342Z" fill="#133682"/>
</svg>
