<svg width="17" height="17" viewBox="0 0 17 17" fill="none" xmlns="http://www.w3.org/2000/svg">
<g id="Phone" clip-path="url(#clip0_654_816)">
<path id="Vector" d="M15.4686 11.365L14.1128 10.0092C13.7087 9.60834 13.1632 9.38232 12.594 9.3799C12.0247 9.37748 11.4773 9.59886 11.0698 9.9963C10.8523 10.215 10.5655 10.3511 10.2585 10.3811C9.95158 10.4111 9.64377 10.3332 9.38805 10.1608C8.37875 9.48725 7.51169 8.62186 6.83616 7.61388C6.66679 7.35531 6.59172 7.04626 6.6236 6.73881C6.65548 6.43135 6.79236 6.14429 7.01117 5.92597C7.40501 5.51805 7.62353 4.97218 7.61996 4.40517C7.61639 3.83817 7.39102 3.29509 6.99207 2.89217L5.63632 1.53642C5.23042 1.13192 4.68075 0.904785 4.10771 0.904785C3.53467 0.904785 2.985 1.13192 2.5791 1.53642L2.18902 1.92712C0.15539 3.96075 0.307604 8.23629 4.53878 12.465C7.09005 15.0169 9.65796 16.0855 11.7403 16.0855C12.3532 16.1059 12.9641 16.0041 13.5374 15.786C14.1106 15.568 14.6347 15.238 15.0791 14.8154L15.4698 14.4247C15.8751 14.0186 16.1025 13.4683 16.1023 12.8946C16.1021 12.3209 15.8742 11.7707 15.4686 11.365ZM14.5972 13.5533L14.2065 13.944C12.6043 15.5462 9.0676 15.2535 5.40892 11.5942C1.75025 7.93494 1.45691 4.39582 3.05916 2.79357L3.44678 2.40348C3.62131 2.22959 3.85764 2.13194 4.10401 2.13194C4.35038 2.13194 4.58672 2.22959 4.76124 2.40348L6.11699 3.75923C6.28835 3.93145 6.38561 4.16381 6.38803 4.40674C6.39045 4.64967 6.29783 4.88393 6.12993 5.05952C5.71352 5.47859 5.45377 6.02803 5.39419 6.6158C5.33462 7.20357 5.47884 7.79395 5.80271 8.28805C6.57027 9.43669 7.55732 10.4223 8.70709 11.1881C9.19971 11.512 9.78855 11.6571 10.3753 11.5991C10.962 11.5411 11.511 11.2836 11.9307 10.8695C12.1059 10.6996 12.3409 10.6053 12.5849 10.6068C12.829 10.6083 13.0628 10.7055 13.2359 10.8775L14.5917 12.2333C14.679 12.3194 14.7485 12.4219 14.7961 12.535C14.8437 12.6481 14.8685 12.7695 14.869 12.8921C14.8695 13.0148 14.8458 13.1364 14.7991 13.2499C14.7525 13.3633 14.6839 13.4664 14.5972 13.5533Z" fill="#6F6F6F"/>
</g>
<defs>
<clipPath id="clip0_654_816">
<rect width="17" height="17" fill="white"/>
</clipPath>
</defs>
</svg>
