<svg width="17" height="17" viewBox="0 0 17 17" fill="none" xmlns="http://www.w3.org/2000/svg">
<g id="User" clip-path="url(#clip0_654_869)">
<path id="Vector" d="M8.47459 9.49677C10.9906 9.49677 13.0084 7.45408 13.0084 4.96299C13.0084 2.4719 10.9906 0.404297 8.47459 0.404297C5.95859 0.404297 3.9408 2.44699 3.9408 4.93808C3.9408 7.42917 5.95859 9.49677 8.47459 9.49677ZM8.47459 1.60002C10.318 1.60002 11.8126 3.09467 11.8126 4.93808C11.8126 6.78148 10.318 8.27614 8.47459 8.27614C6.63118 8.27614 5.13653 6.8064 5.13653 4.96299C5.13653 3.11958 6.63118 1.60002 8.47459 1.60002ZM0.602744 16.5964H16.3962C16.7201 16.5964 16.9941 16.3224 16.9941 15.9985C16.9941 12.8597 14.4283 10.2939 11.2895 10.2939H5.70948C2.5707 10.2939 0.00488281 12.8597 0.00488281 15.9985C0.00488281 16.3224 0.278903 16.5964 0.602744 16.5964ZM5.70948 11.4896H11.2895C13.5813 11.4896 15.4496 13.1836 15.7486 15.4007H1.25043C1.54936 13.1836 3.41767 11.4896 5.70948 11.4896Z" fill="#858181"/>
</g>
<defs>
<clipPath id="clip0_654_869">
<rect width="17" height="17" fill="white"/>
</clipPath>
</defs>
</svg>
